<?xml version="1.0" encoding="UTF-8" standalone="no"?>
<svg
   width="16.798828"
   height="16.798828"
   fill="currentColor"
   class="bi bi-box-arrow-up-right"
   viewBox="0 0 16.798828 16.798828"
   version="1.1"
   id="svg110"
   xmlns="http://www.w3.org/2000/svg">
  <defs
     id="defs114" />
  <path
     style="opacity:1;stroke-width:0.928343"
     d="m 1.8984375,3.0019531 c -0.4967818,0 -0.99051908,0.2053628 -1.34179688,0.5566406 C 0.20536284,3.9098715 0,4.4036088 0,4.9003906 V 14.900391 c 0,0.496782 0.20536284,0.990519 0.55664062,1.341797 0.3512778,0.351278 0.84501508,0.556641 1.34179688,0.556641 H 11.898438 c 0.496782,0 0.990519,-0.205363 1.341797,-0.556641 0.351278,-0.351278 0.55664,-0.845015 0.556641,-1.341797 V 8.2636718 c 0,-0.4699648 -0.428473,-0.8984374 -0.898438,-0.8984374 C 12.428473,7.3652344 12,7.793707 12,8.2636718 v 6.3320312 a 0.46417134,0.46417134 0 0 1 -0.40625,0.40625 H 2.2421875 A 0.46417134,0.46417134 0 0 1 1.796875,14.556641 V 5.2441406 A 0.46417134,0.46417134 0 0 1 2.2421875,4.7988281 h 6.2929688 c 0.4699647,0 0.8984374,-0.4284726 0.8984374,-0.8984375 0,-0.4699649 -0.4284727,-0.8984375 -0.8984374,-0.8984375 z"
     id="path106" />
  <path
     id="path1589"
     d="m 10.5,-0.40039062 c -0.471122,0 -0.9003906,0.42926813 -0.9003906,0.90039062 0,0.47112249 0.4292686,0.9003906 0.9003906,0.9003906 h 2.826172 L 5.8632812,8.8632812 a 0.39981766,0.39981766 0 0 0 -0.013672,0.015625 c -0.30497,0.3386762 -0.2910141,0.9179704 0.03125,1.2402348 0.322264,0.322264 0.9015582,0.33622 1.2402344,0.03125 a 0.39981766,0.39981766 0 0 0 0.015625,-0.01367 L 14.599609,2.6738281 V 5.5 c 0,0.4711225 0.429269,0.9003906 0.900391,0.9003906 0.471122,0 0.900391,-0.4292681 0.900391,-0.9003906 v -5 c 0,-0.47112249 -0.429269,-0.90039063 -0.900391,-0.90039062 z"
     style="opacity:1"
     transform="translate(0.3984375,0.40039062)" />
</svg>
