<?xml version="1.0" encoding="UTF-8" standalone="no"?>
<svg
   width="16.09445"
   height="16.0909"
   fill="currentColor"
   class="bi bi-search"
   viewBox="0 0 16.09445 16.0909"
   version="1.1"
   id="svg2709"
   xmlns="http://www.w3.org/2000/svg">
  <defs
     id="defs2713" />
  <path
     id="path2707"
     style="opacity:1"
     d="M 6.5746007,3.8156076e-4 C 5.0151572,-0.01714497 3.3946085,0.56803363 1.9808507,1.9828034 -3.6738009,7.6415026 3.9240951,16.580642 10.420304,11.814835 c 0.03,0.04 0.06166,0.07823 0.09766,0.115234 l 3.851563,3.849609 c 0.942666,0.943333 2.356728,-0.470729 1.414062,-1.414062 l -3.849609,-3.84961 c -0.03575,-0.03619 -0.07443,-0.06923 -0.115234,-0.09961 C 15.391231,5.5414668 11.252931,0.05296112 6.5746007,3.8156076e-4 Z M 6.5765538,1.8363191 A 4.7385306,4.7384996 0 0 1 11.314835,6.5746003 4.7385306,4.7384996 0 0 1 6.5765538,11.312881 4.7385306,4.7384996 0 0 1 1.8363194,6.5746003 4.7385306,4.7384996 0 0 1 6.5765538,1.8363191 Z" />
</svg>
