<?xml version="1.0" encoding="UTF-8" standalone="no"?>
<svg
   width="16"
   height="16"
   fill="currentColor"
   class="bi bi-x-circle"
   viewBox="0 0 16 16"
   version="1.1"
   id="svg828"
   xmlns="http://www.w3.org/2000/svg">
  <defs
     id="defs832" />
  <path
     id="path824"
     d="M 8,0 A 8,8 0 0 0 8,16 8,8 0 0 0 8,0 Z M 8,1.6992188 A 6.3007811,6.3007811 0 0 1 8,14.300781 6.3007811,6.3007811 0 0 1 8,1.6992188 Z" />
  <path
     id="path826"
     d="m 10.994141,4.0292969 c -0.260983,0.00683 -0.519998,0.1099998 -0.695313,0.3046875 L 8,6.6328125 5.6835938,4.3164062 C 5.5044554,4.1372296 5.253367,4.0312883 5,4.03125 4.746633,4.0312883 4.4955446,4.1372296 4.3164062,4.3164062 3.958158,4.674731 3.958158,5.325269 4.3164062,5.6835938 L 6.6328125,8 4.3164062,10.316406 a 0.46789205,0.46789205 0 0 0 -0.017578,0.01758 c -0.3280311,0.364278 -0.311472,0.985403 0.035156,1.332032 0.3466282,0.346628 0.9677532,0.363187 1.3320312,0.03516 a 0.46789205,0.46789205 0 0 0 0.017578,-0.01758 L 8,9.3671875 10.316406,11.683594 a 0.46789205,0.46789205 0 0 0 0.01758,0.01758 c 0.364277,0.328037 0.985401,0.311475 1.332032,-0.03516 0.346631,-0.346631 0.363193,-0.967755 0.03516,-1.332032 a 0.46789205,0.46789205 0 0 0 -0.01758,-0.01758 L 9.3671875,8 11.666016,5.7011719 C 12.05539,5.3505408 12.073635,4.6673845 11.703125,4.296875 11.51787,4.1116202 11.255124,4.0224693 10.994141,4.0292969 Z" />
</svg>
